<?xml version="1.0" encoding="UTF-8" standalone="no"?>
<!-- Created with Inkscape (http://www.inkscape.org/) -->

<svg
   xmlns:dc="http://purl.org/dc/elements/1.1/"
   xmlns:cc="http://creativecommons.org/ns#"
   xmlns:rdf="http://www.w3.org/1999/02/22-rdf-syntax-ns#"
   xmlns:svg="http://www.w3.org/2000/svg"
   xmlns="http://www.w3.org/2000/svg"
   xmlns:sodipodi="http://sodipodi.sourceforge.net/DTD/sodipodi-0.dtd"
   xmlns:inkscape="http://www.inkscape.org/namespaces/inkscape"
   width="120"
   height="120"
   id="svg3034"
   version="1.1"
   inkscape:version="0.48.4 r9939"
   sodipodi:docname="autoquiz-icon.svg"
   inkscape:export-filename="/home/mokush/Dev/auto/artwork/autoquiz-icon.png"
   inkscape:export-xdpi="384"
   inkscape:export-ydpi="384">
  <defs
     id="defs3036">
    <clipPath
       clipPathUnits="userSpaceOnUse"
       id="clipPath3043">
      <rect
         style="opacity:0.90794983;fill:#000080;fill-opacity:1;stroke:none"
         id="rect3045"
         width="240.19212"
         height="138.34387"
         x="156.71889"
         y="-19.321247"
         transform="matrix(0.70710678,0.70710678,-0.70710678,0.70710678,0,0)" />
    </clipPath>
    <filter
       inkscape:collect="always"
       id="filter3837"
       color-interpolation-filters="sRGB">
      <feGaussianBlur
         inkscape:collect="always"
         stdDeviation="2.7578812"
         id="feGaussianBlur3839" />
    </filter>
  </defs>
  <sodipodi:namedview
     id="base"
     pagecolor="#ffffff"
     bordercolor="#666666"
     borderopacity="1.0"
     inkscape:pageopacity="0.0"
     inkscape:pageshadow="2"
     inkscape:zoom="5.6"
     inkscape:cx="54.402181"
     inkscape:cy="63.71742"
     inkscape:document-units="px"
     inkscape:current-layer="layer1"
     showgrid="true"
     fit-margin-top="0"
     fit-margin-left="0"
     fit-margin-right="0"
     fit-margin-bottom="0"
     inkscape:window-width="1233"
     inkscape:window-height="800"
     inkscape:window-x="47"
     inkscape:window-y="0"
     inkscape:window-maximized="1">
    <inkscape:grid
       type="xygrid"
       id="grid3079"
       empspacing="5"
       visible="true"
       enabled="true"
       snapvisiblegridlinesonly="true" />
  </sodipodi:namedview>
  <metadata
     id="metadata3039">
    <rdf:RDF>
      <cc:Work
         rdf:about="">
        <dc:format>image/svg+xml</dc:format>
        <dc:type
           rdf:resource="http://purl.org/dc/dcmitype/StillImage" />
        <dc:title></dc:title>
      </cc:Work>
    </rdf:RDF>
  </metadata>
  <g
     inkscape:label="Layer 1"
     inkscape:groupmode="layer"
     id="layer1"
     transform="translate(-100.68425,-403.19629)">
    <g
       id="g3232"
       transform="matrix(1.098774,0,0,1.098774,8.3136091,-121.74945)">
      <g
         inkscape:export-ydpi="120"
         inkscape:export-xdpi="120"
         inkscape:export-filename="/home/mokush/Dev/auto/artwork/text3891.png"
         transform="matrix(0.36038175,0,0,0.36038175,76.338538,514.97275)"
         id="g3845">
        <path
           inkscape:connector-curvature="0"
           id="path3847"
           transform="translate(0,-147.63782)"
           d="m 192,46.90625 c -70.95221,0 -131.07199,46.253066 -151.90625,110.25 l -18.125,-6.28125 7.53125,39.28125 7.5,39.25 10.84375,-9.375 C 46.929904,213.4856 46.4375,206.79739 46.4375,200 46.4375,120.71866 110.71866,56.4375 190,56.4375 c 32.12706,0 61.76823,10.57643 85.6875,28.40625 L 280.40625,80 C 254.03475,60.784174 227.13109,46.90625 192,46.90625 z"
           style="fill:#32c243;fill-opacity:1;stroke:none" />
        <path
           sodipodi:type="arc"
           style="fill:#f2f2f2;fill-opacity:1;stroke:none"
           id="path3849"
           sodipodi:cx="190"
           sodipodi:cy="200"
           sodipodi:rx="100"
           sodipodi:ry="100"
           d="m 290,200 c 0,55.22847 -44.77153,100 -100,100 -55.22847,0 -100,-44.77153 -100,-100 0,-55.22847 44.77153,-100 100,-100 55.22847,0 100,44.77153 100,100 z"
           transform="matrix(1.030229,0,0,1.030229,-5.7435107,-153.68362)" />
        <path
           transform="translate(0,-147.63782)"
           inkscape:connector-curvature="0"
           id="path3851"
           d="M 190.0625,63.5 C 114.77031,63.5 53.75,124.52031 53.75,199.8125 c 0,60.54515 39.452446,111.8154 94.0625,129.59375 L 142.46875,344.875 176,338.46875 209.5,332.0625 194.875,315.15625 c -1.61688,0.0673 -3.24158,0.125 -4.875,0.125 C 126.33963,315.28125 74.71875,263.66037 74.71875,200 74.71875,136.33963 126.33963,84.71875 190,84.71875 c 56.75248,0 103.93061,41.02599 113.5,95.03125 l 20.46875,-5.46875 C 312.02318,111.18333 256.63482,63.5 190.0625,63.5 z"
           style="fill:#004bac;fill-opacity:1;stroke:none" />
        <path
           clip-path="url(#clipPath3043)"
           transform="matrix(1.030229,0,0,1.030229,-5.7435107,-153.68362)"
           d="m 290,200 c 0,55.22847 -44.77153,100 -100,100 -55.22847,0 -100,-44.77153 -100,-100 0,-55.22847 44.77153,-100 100,-100 55.22847,0 100,44.77153 100,100 z"
           sodipodi:ry="100"
           sodipodi:rx="100"
           sodipodi:cy="200"
           sodipodi:cx="190"
           id="path3853"
           style="fill:#ececec;fill-opacity:1;stroke:none"
           sodipodi:type="arc" />
        <path
           transform="matrix(0.91308345,0,0,1.0018968,19.006521,3.9026043)"
           inkscape:connector-curvature="0"
           id="path3855"
           d="m 242.35668,1.3605372 -67.12235,67.1685238 -36.07879,-36.078828 -26.10053,26.100561 62.7337,62.687506 26.05438,-26.054334 -0.0463,-0.0463 L 268.96528,27.969181 242.3566,1.3604582 z"
           style="opacity:0.23999999;fill:#b3b3b3;fill-opacity:1;stroke:none;filter:url(#filter3837)" />
        <path
           style="fill:#00e62d;fill-opacity:1;stroke:none"
           d="M 235.49876,4.4694701 177.34138,62.66686 146.08133,31.406778 l -22.61451,22.614528 54.35489,54.314874 22.57451,-22.57449 -0.0401,-0.0401 58.19736,-58.19737 -23.05479,-23.0548194 z"
           id="path3857"
           inkscape:connector-curvature="0" />
      </g>
    </g>
  </g>
</svg>
